<svg version="1.1" id="Layer_1" xmlns="http://www.w3.org/2000/svg" xmlns:xlink="http://www.w3.org/1999/xlink" x="0px" y="0px" width="100%" viewBox="0 0 1024 1024" enable-background="new 0 0 1024 1024" xml:space="preserve">

<path fill="#2EC637" opacity="1.000000" stroke="none" d="
M212.028610,573.010803 
	C224.548660,553.278809 237.060471,533.541626 249.592056,513.816956 
	C256.263214,503.316650 262.770874,492.704163 269.743073,482.406891 
	C273.156555,477.365509 277.462250,472.928253 281.810730,468.113770 
	C282.508545,467.932739 282.707367,467.770844 282.853760,467.524261 
	C282.853760,467.524261 282.841736,467.755615 283.077881,467.730743 
	C284.179596,467.043121 285.045166,466.380402 285.910706,465.717651 
	C285.910706,465.717621 285.762360,465.831390 286.053040,465.749878 
	C287.199554,464.995697 288.055420,464.323090 288.911316,463.650452 
	C288.911285,463.650421 289.057129,463.834290 289.164337,463.746582 
	C289.508392,463.413513 289.745239,463.168182 289.982117,462.922882 
	C289.982117,462.922882 289.978058,462.994873 290.226868,462.876099 
	C291.007965,462.464172 291.540222,462.171021 292.072449,461.877930 
	C292.072479,461.877930 292.280029,461.742889 292.772644,461.828735 
	C303.982422,458.592346 314.958710,457.497040 326.138763,457.962860 
	C327.397797,458.015350 328.683685,457.423828 329.957123,457.130920 
	C354.195343,459.198456 371.688171,470.905792 382.047058,493.156006 
	C421.002380,576.829529 460.013611,660.476990 499.059021,744.108521 
	C506.502594,760.052002 514.093811,775.928772 521.809326,791.742432 
	C527.458862,803.321838 536.843079,811.304138 548.741028,815.410400 
	C553.715271,817.127075 559.875000,815.795349 565.447327,815.302490 
	C573.870911,814.557373 581.553284,811.135254 587.631653,805.530457 
	C593.029541,800.553162 598.419678,794.868103 601.719910,788.423462 
	C633.657349,726.057800 665.148987,663.463867 696.778748,600.940613 
	C701.573181,591.463501 706.422791,582.014343 711.731934,572.214600 
	C712.473450,571.213135 712.730042,570.549255 712.986572,569.885315 
	C712.986572,569.885315 712.996033,570.014526 713.122375,569.829834 
	C713.488281,569.380798 713.727783,569.116516 713.967346,568.852234 
	C713.967346,568.852234 713.976868,568.992615 714.115723,568.727173 
	C714.482666,567.592041 714.710876,566.722412 714.939087,565.852722 
	C714.939087,565.852722 715.001099,565.980347 715.122314,565.767578 
	C715.488098,564.999084 715.732666,564.443298 715.977234,563.887512 
	C715.977234,563.887512 716.013306,563.993164 716.129395,563.763428 
	C716.491821,562.990295 716.738098,562.446899 716.984375,561.903442 
	C716.984375,561.903442 717.000244,561.985596 717.132935,561.754089 
	C717.504883,560.983093 717.744141,560.443604 717.983459,559.904114 
	C717.983459,559.904114 717.999634,559.984436 718.131104,559.754028 
	C718.503418,558.988037 718.744324,558.452454 718.985229,557.916870 
	C718.985229,557.916870 719.006287,557.979980 719.147034,557.749695 
	C719.520264,556.980835 719.752808,556.442261 719.985291,555.903687 
	C719.985291,555.903687 719.999634,555.983887 720.135498,555.753967 
	C720.509705,554.984314 720.747986,554.444580 720.986267,553.904846 
	C720.986267,553.904846 721.006104,553.989441 721.149658,553.738159 
	C721.531006,553.132568 721.768738,552.778320 722.006470,552.424072 
	C722.006409,552.424072 721.767639,552.259583 722.167358,551.994263 
	C723.032837,550.457825 723.498657,549.186584 723.964478,547.915405 
	C723.964478,547.915405 723.992554,547.974304 724.143555,547.804199 
	C724.528625,547.388367 724.762634,547.142578 724.996704,546.896790 
	C724.996704,546.896790 724.880798,547.069580 725.098755,546.835327 
	C729.598389,538.616577 733.969238,530.677917 738.107666,522.619934 
	C739.362610,520.176270 739.974854,517.402527 740.881531,514.779968 
	C740.881531,514.779968 740.920654,514.954285 741.141846,514.785034 
	C741.869507,513.338989 742.375916,512.062134 742.882385,510.785309 
	C742.882385,510.785309 742.995789,510.925812 743.108948,510.782104 
	C743.461365,510.363739 743.700623,510.089081 743.939819,509.814453 
	C743.939819,509.814423 743.928162,509.968018 744.113281,509.726929 
	C745.505432,506.601288 746.712524,503.716705 747.919617,500.832123 
	C747.919617,500.832123 748.008057,500.964691 748.121704,500.753815 
	C748.472412,499.968445 748.709534,499.393951 748.946716,498.819458 
	C748.946716,498.819458 749.028442,498.971771 749.130493,498.757812 
	C749.471985,497.970123 749.711487,497.396454 749.950989,496.822784 
	C749.950989,496.822784 750.021667,496.984039 750.121216,496.767395 
	C750.468689,495.982239 750.716492,495.413696 750.964355,494.845184 
	C750.964355,494.845184 751.020020,494.995667 751.128418,494.770813 
	C751.474976,493.972748 751.713257,493.399536 751.951538,492.826294 
	C751.951477,492.826294 752.024109,492.980286 752.128662,492.764465 
	C752.474609,491.977448 752.716064,491.406219 752.957458,490.834991 
	C752.957458,490.834991 753.024170,490.985596 753.127930,490.766785 
	C753.477661,489.981262 753.723755,489.414612 753.969788,488.847931 
	C753.969788,488.847931 754.002319,489.002258 754.115967,488.823181 
	C754.469482,488.373230 754.709229,488.102356 754.949036,487.831482 
	C754.774719,487.860229 754.600403,487.888977 754.503357,487.671814 
	C754.835876,487.376007 754.914795,487.209167 754.817383,486.925446 
	C754.995056,486.377441 755.172791,485.829437 755.795532,484.949524 
	C756.485413,484.364990 756.730347,484.112335 756.975281,483.859680 
	C756.975281,483.859680 756.985535,483.994324 757.102783,483.756226 
	C757.449768,482.966217 757.679443,482.414246 757.909119,481.862305 
	C757.909119,481.862305 757.950562,481.963440 758.107422,481.716125 
	C758.494568,480.606506 758.724792,479.744202 758.955017,478.881866 
	C758.955017,478.881866 758.987732,478.974304 759.131104,478.807831 
	C759.506775,478.380646 759.739136,478.119904 759.971558,477.859192 
	C759.971558,477.859192 759.983215,477.992645 760.120972,477.729309 
	C760.493225,476.605560 760.727722,475.745178 760.962280,474.884766 
	C760.962219,474.884766 760.998352,474.982330 761.130127,474.758850 
	C761.503784,473.987457 761.745605,473.439545 761.987427,472.891632 
	C761.987427,472.891632 762.010864,473.008026 762.132568,472.775940 
	C762.497925,471.992767 762.741516,471.441681 762.985107,470.890564 
	C762.985168,470.890594 763.011169,470.997894 763.134888,470.766296 
	C763.499817,469.984436 763.741028,469.434235 763.982239,468.884003 
	C763.982239,468.884003 764.001526,468.992706 764.135376,468.817688 
	C764.505127,468.384491 764.741028,468.126312 764.976929,467.868103 
	C764.976929,467.868103 764.987366,467.995422 765.130981,467.736053 
	C765.505798,466.621033 765.737061,465.765381 765.968323,464.909729 
	C765.968323,464.909729 765.993958,464.975189 766.151978,464.732849 
	C766.542297,464.135590 766.774536,463.780640 767.006714,463.425690 
	C767.006714,463.425690 766.777344,463.243683 767.192261,463.009155 
	C768.759155,460.360321 769.911255,457.945984 771.516235,455.640869 
	C797.154968,455.831146 822.340881,455.887085 847.526306,456.033539 
	C849.967163,456.047729 852.404785,456.622345 854.843872,456.936829 
	C841.318542,482.847534 827.829224,508.777130 814.261108,534.665405 
	C772.932312,613.522095 731.676331,692.417236 690.150513,771.170105 
	C680.242310,789.960815 670.306091,808.848999 658.743347,826.626099 
	C644.861450,847.968872 625.067200,862.671387 600.079590,870.706909 
	C598.630127,870.488220 597.767822,870.176392 597.007507,870.339722 
	C591.669495,871.486023 586.406860,873.120728 581.018677,873.870422 
	C564.381836,876.185547 547.915527,875.215637 531.779724,870.280640 
	C522.085938,867.315796 512.262695,864.681519 504.123108,858.087524 
	C503.009827,857.185669 500.972992,857.423828 499.363708,857.134155 
	C498.945343,856.976013 498.526947,856.817810 497.901062,856.128296 
	C496.759308,855.076904 495.824982,854.556824 494.890656,854.036804 
	C494.587372,853.979675 494.334534,853.834595 493.916870,853.100159 
	C492.987366,852.196411 492.273163,851.794128 491.558929,851.391785 
	C491.558929,851.391785 491.671204,851.100647 491.586945,851.000610 
	C491.238403,850.634888 490.974121,850.369141 490.709869,850.103455 
	C490.709869,850.103455 490.878601,850.033386 490.676086,849.966919 
	C490.199921,849.638428 489.926331,849.376404 489.652710,849.114380 
	C489.652710,849.114380 489.801788,849.400146 489.630066,849.121826 
	C488.568085,848.282776 487.677826,847.722046 486.787537,847.161377 
	C486.787537,847.161377 486.859039,847.158386 486.767334,846.885498 
	C486.010101,846.151062 485.344574,845.689636 484.679047,845.228149 
	C484.679047,845.228149 484.802216,845.034912 484.687744,844.923096 
	C484.314484,844.548279 484.055756,844.285278 483.796997,844.022339 
	C483.796967,844.022339 483.946045,843.975586 483.754395,843.888550 
	C483.305450,843.541809 483.048157,843.282227 482.790863,843.022583 
	C482.790863,843.022583 482.920013,843.203857 482.806885,842.909302 
	C480.390015,840.435486 478.086243,838.256104 475.782501,836.076782 
	C475.460052,836.029724 475.219299,835.863953 474.982758,834.997925 
	C473.877075,833.314636 472.848907,832.212891 471.820740,831.111145 
	C471.820770,831.111145 471.898224,831.111511 471.805298,830.852905 
	C471.327179,830.115662 470.941956,829.636902 470.556732,829.158203 
	C470.556732,829.158203 470.640778,829.372986 470.601379,829.053772 
	C469.851379,828.049194 469.140778,827.363892 468.430145,826.678528 
	C468.430145,826.678528 468.304901,826.599304 468.347534,826.194885 
	C467.833862,825.176575 467.277557,824.562622 466.721283,823.948730 
	C458.734955,809.441284 450.052948,795.268921 442.877319,780.370972 
	C402.168671,695.852722 361.820831,611.160645 321.343781,526.530762 
	C320.783813,525.359985 320.140320,524.229187 319.241425,522.519958 
	C313.436737,532.094238 307.878082,541.262756 301.798279,550.818848 
	C300.234955,553.206299 299.192810,555.206055 298.150665,557.205872 
	C298.150665,557.205872 298.059204,557.061951 297.937317,557.260437 
	C297.567383,558.023560 297.319397,558.588196 297.071411,559.152832 
	C297.071411,559.152832 297.063507,559.081360 296.764008,559.183594 
	C295.684906,560.918030 294.905304,562.550354 294.125702,564.182617 
	C294.125702,564.182617 294.057190,564.050720 293.926147,564.251648 
	C293.543640,565.003052 293.292206,565.553589 293.040771,566.104065 
	C293.040771,566.104065 293.020386,566.042297 292.725159,566.157104 
	C291.817780,567.666077 291.205597,569.060181 290.593414,570.454285 
	C290.593414,570.454285 290.529358,570.410095 290.205170,570.489502 
	C289.158905,572.183838 288.436859,573.798706 287.714813,575.413635 
	C287.714813,575.413635 287.779541,575.636292 287.297241,575.637390 
	C285.922211,577.488159 285.029480,579.337769 284.136719,581.187378 
	C284.136719,581.187378 284.045593,581.057495 283.923584,581.258728 
	C283.555939,582.023926 283.310303,582.587830 283.064636,583.151794 
	C283.064636,583.151794 283.032318,583.039307 282.899261,583.220703 
	C282.526245,583.671143 282.286285,583.940063 282.046295,584.208984 
	C282.046295,584.208984 282.261810,584.081299 281.973816,584.237122 
	C280.271515,586.730774 278.857208,589.068542 277.442932,591.406372 
	C277.442902,591.406372 277.130493,591.347351 277.006256,591.421875 
	C276.618347,591.762268 276.354675,592.028076 276.091003,592.293884 
	C276.091003,592.293884 276.362946,592.186707 276.042145,592.303345 
	C273.537384,593.567627 271.415527,594.859863 269.155426,595.830078 
	C265.387146,597.447815 261.556641,600.065796 257.706360,600.149536 
	C240.743179,600.518494 223.763580,600.129639 206.789902,600.020630 
	C204.382706,600.005188 201.975311,600.018555 199.170471,600.018555 
	C199.797043,596.588501 200.325684,593.694519 200.854324,590.800598 
	C200.854324,590.800598 200.940308,590.932861 201.058197,590.767944 
	C201.434860,590.346191 201.693649,590.089355 201.952438,589.832520 
	C201.952438,589.832520 201.687073,590.039062 201.922928,589.769592 
	C202.744949,588.290344 203.331116,587.080566 203.917297,585.870850 
	C203.917297,585.870850 203.943466,585.933167 204.199402,585.812500 
	C204.735870,584.969604 205.016418,584.247375 205.296982,583.525208 
	C205.296982,583.525208 205.254288,583.355103 205.695572,583.347290 
	C206.937424,581.747559 207.737991,580.155518 208.538544,578.563538 
	C208.538528,578.563538 208.571442,578.691162 208.841339,578.583435 
	C209.499207,577.508728 209.887161,576.541809 210.275116,575.574829 
	C210.275101,575.574829 210.241974,575.361938 210.635284,575.367676 
	C211.361938,574.585815 211.695267,573.798340 212.028610,573.010803 
z" data-index="1" style="opacity: 1;"></path>
<path fill="#2EC537" opacity="1.000000" stroke="none" d="
M537.955811,119.133835 
	C556.108765,121.365372 573.269287,126.909943 589.323669,135.519272 
	C638.397095,161.835480 668.848572,202.460999 678.561462,257.186371 
	C686.503296,301.933411 676.062683,343.461365 649.328491,380.232391 
	C619.849548,420.778656 579.324341,442.861267 528.983643,448.625702 
	C518.478516,448.598267 508.757233,448.744598 499.035980,448.890961 
	C479.278229,447.632965 460.342529,442.905884 442.559357,434.296936 
	C390.368683,409.030914 358.914734,367.749512 348.309814,310.026459 
	C348.351715,305.047058 348.274933,300.802246 347.985016,296.572083 
	C347.447510,288.728912 346.785431,280.894226 346.175201,273.056030 
	C348.302155,240.018799 359.640045,210.313034 379.380829,183.938904 
	C404.578613,150.274063 438.109589,129.280090 479.136505,120.289536 
	C482.872498,119.470840 486.829437,119.713776 490.657349,119.247185 
	C495.197388,118.693794 499.708832,117.905693 504.875793,117.548569 
	C506.922943,118.233269 508.314087,118.827988 509.733124,118.904343 
	C517.528259,119.323807 525.328491,119.672607 533.131226,119.906052 
	C534.730286,119.953888 536.347168,119.406723 537.955811,119.133835 
M605.991211,231.044876 
	C605.991211,231.044876 605.908447,231.183899 605.867676,230.493561 
	C605.211853,229.675705 604.556030,228.857849 603.968323,228.048233 
	C603.968323,228.048233 603.953369,228.115219 603.868591,227.441391 
	C603.215210,226.640198 602.561829,225.838989 601.974548,225.043686 
	C601.974548,225.043686 601.954529,225.106934 601.910706,224.510849 
	C601.241455,223.727570 600.572266,222.944290 599.334656,221.794998 
	C581.328491,197.909317 557.584900,183.506592 527.408569,178.126785 
	C523.955627,178.044647 520.502747,177.962509 516.240479,178.050659 
	C515.143921,177.994217 514.047363,177.937790 512.238892,177.504410 
	C508.176880,177.775009 504.114838,178.045624 499.502258,178.835709 
	C475.384491,182.054153 454.902679,192.676193 437.796051,209.746582 
	C411.734772,235.752670 401.280396,267.385956 408.957733,303.188965 
	C419.126099,350.608765 449.606842,378.635132 497.547699,388.808594 
	C507.214203,388.846130 516.880676,388.883698 526.903198,388.274414 
	C531.770386,387.323090 536.764282,386.788940 541.484619,385.354370 
	C578.645447,374.060547 603.165588,349.751251 616.033020,312.501678 
	C620.575745,302.420532 622.220459,291.966858 619.951294,280.345520 
	C619.995178,279.887787 620.039001,279.430023 620.494385,278.282013 
	C620.351746,274.499298 620.901428,270.527008 619.927917,266.971771 
	C617.620544,258.545227 614.590454,250.316544 611.918884,242.179459 
	C611.918884,242.179459 611.747192,242.245575 611.808289,241.472748 
	C610.133484,238.337463 608.458740,235.202179 606.915955,232.014786 
	C606.915955,232.014786 606.967651,232.147003 606.623474,231.726868 
	C606.366272,231.472061 606.109131,231.217239 605.991211,231.044876 
z" data-index="2" style="opacity: 1;"></path>
<path fill="#30D03B" opacity="1.000000" stroke="none" d="
M200.576279,590.999146 
	C200.325684,593.694519 199.797043,596.588501 199.170471,600.018555 
	C201.975311,600.018555 204.382706,600.005188 206.789902,600.020630 
	C223.763580,600.129639 240.743179,600.518494 257.706360,600.149536 
	C261.556641,600.065796 265.387146,597.447815 269.155426,595.830078 
	C271.415527,594.859863 273.537384,593.567627 276.095581,592.439453 
	C270.418488,599.776855 262.201385,602.643433 253.159439,602.771729 
	C233.572922,603.049622 213.979706,602.857361 193.273605,602.857361 
	C195.843460,598.591858 198.070847,594.894775 200.576279,590.999146 
z" data-index="3"></path>
<path fill="#30D03B" opacity="1.000000" stroke="none" d="
M499.593018,857.416138 
	C500.972992,857.423828 503.009827,857.185669 504.123108,858.087524 
	C512.262695,864.681519 522.085938,867.315796 531.779724,870.280640 
	C547.915527,875.215637 564.381836,876.185547 581.018677,873.870422 
	C586.406860,873.120728 591.669495,871.486023 597.007507,870.339722 
	C597.767822,870.176392 598.630127,870.488220 599.710327,870.745972 
	C575.152588,879.357849 550.285645,878.867981 525.758972,870.191040 
	C516.765747,867.009460 508.448090,861.918213 499.593018,857.416138 
z" data-index="4"></path>
<path fill="#3AFB46" opacity="1.000000" stroke="none" d="
M855.042603,456.619141 
	C852.404785,456.622345 849.967163,456.047729 847.526306,456.033539 
	C822.340881,455.887085 797.154968,455.831146 771.517395,455.580994 
	C771.065613,455.411987 771.028931,455.285522 771.028931,455.285522 
	C791.928833,455.189850 812.828674,455.075073 833.728699,455.009064 
	C840.860413,454.986542 847.992615,455.084808 855.124451,455.145233 
	C855.240967,455.146210 855.457214,455.374268 855.451172,455.486786 
	C855.436218,455.761322 855.317932,456.030243 855.042603,456.619141 
z" data-index="5"></path>
<path fill="#37E741" opacity="1.000000" stroke="none" d="
M740.605713,514.992371 
	C739.974854,517.402527 739.362610,520.176270 738.107666,522.619934 
	C733.969238,530.677917 729.598389,538.616577 725.012268,546.777588 
	C729.915161,536.370972 735.122559,525.787903 740.605713,514.992371 
z" data-index="6"></path>
<path fill="#37E741" opacity="1.000000" stroke="none" d="
M329.545715,457.057587 
	C328.683685,457.423828 327.397797,458.015350 326.138763,457.962860 
	C314.958710,457.497040 303.982422,458.592346 292.841095,461.931915 
	C299.691833,460.205933 306.897888,458.017456 314.266144,456.877258 
	C319.100922,456.129150 324.170135,456.895935 329.545715,457.057587 
z" data-index="7"></path>
<path fill="#37E741" opacity="1.000000" stroke="none" d="
M537.550659,119.036209 
	C536.347168,119.406723 534.730286,119.953888 533.131226,119.906052 
	C525.328491,119.672607 517.528259,119.323807 509.733124,118.904343 
	C508.314087,118.827988 506.922943,118.233269 505.286560,117.594315 
	C515.751282,117.853394 526.448364,118.395988 537.550659,119.036209 
z" data-index="8"></path>
<path fill="#37E741" opacity="1.000000" stroke="none" d="
M346.098511,273.515564 
	C346.785431,280.894226 347.447510,288.728912 347.985016,296.572083 
	C348.274933,300.802246 348.351715,305.047058 348.323425,309.617859 
	C347.422089,297.958679 346.721954,285.966919 346.098511,273.515564 
z" data-index="9"></path>
<path fill="#37E741" opacity="1.000000" stroke="none" d="
M499.460419,448.995117 
	C508.757233,448.744598 518.478516,448.598267 528.562744,448.635315 
	C519.245422,448.912262 509.565125,449.005768 499.460419,448.995117 
z" data-index="10"></path>
<path fill="#30D03B" opacity="1.000000" stroke="none" d="
M475.942078,836.374695 
	C478.086243,838.256104 480.390015,840.435486 482.716095,842.973755 
	C480.526154,841.112671 478.313904,838.892639 475.942078,836.374695 
z" data-index="11"></path>
<path fill="#30D03B" opacity="1.000000" stroke="none" d="
M277.698486,591.198669 
	C278.857208,589.068542 280.271515,586.730774 282.037537,584.344971 
	C280.910858,586.528320 279.432465,588.759644 277.698486,591.198669 
z" data-index="12"></path>
<path fill="#37E741" opacity="1.000000" stroke="none" d="
M747.649414,501.052368 
	C746.712524,503.716705 745.505432,506.601288 744.036499,509.720764 
	C744.976196,507.061340 746.177734,504.166992 747.649414,501.052368 
z" data-index="13"></path>
<path fill="#37E741" opacity="1.000000" stroke="none" d="
M770.733154,455.432220 
	C771.028931,455.285522 771.065613,455.411987 771.064453,455.471832 
	C769.911255,457.945984 768.759155,460.360321 767.281433,462.893097 
	C768.116272,460.534027 769.276794,458.056488 770.733154,455.432220 
z" data-index="14"></path>
<path fill="#30D03B" opacity="1.000000" stroke="none" d="
M284.410706,581.000183 
	C285.029480,579.337769 285.922211,577.488159 287.195923,575.693787 
	C286.612823,577.437073 285.648743,579.125000 284.410706,581.000183 
z" data-index="15"></path>
<path fill="#30D03B" opacity="1.000000" stroke="none" d="
M298.423401,557.012451 
	C299.192810,555.206055 300.234955,553.206299 301.608459,551.105591 
	C300.858582,552.942810 299.777374,554.880981 298.423401,557.012451 
z" data-index="16"></path>
<path fill="#30D03B" opacity="1.000000" stroke="none" d="
M208.303467,578.781738 
	C207.737991,580.155518 206.937424,581.747559 205.779297,583.321045 
	C206.303940,581.868408 207.186157,580.434143 208.303467,578.781738 
z" data-index="17"></path>
<path fill="#30D03B" opacity="1.000000" stroke="none" d="
M287.903931,575.156128 
	C288.436859,573.798706 289.158905,572.183838 290.237793,570.468323 
	C289.760773,571.878052 288.926910,573.388367 287.903931,575.156128 
z" data-index="18"></path>
<path fill="#30D03B" opacity="1.000000" stroke="none" d="
M294.384399,563.973022 
	C294.905304,562.550354 295.684906,560.918030 296.799805,559.180176 
	C296.304443,560.637573 295.473785,562.200500 294.384399,563.973022 
z" data-index="19"></path>
<path fill="#30D03B" opacity="1.000000" stroke="none" d="
M290.807556,570.218140 
	C291.205597,569.060181 291.817780,567.666077 292.757629,566.158081 
	C292.397430,567.356750 291.709564,568.669373 290.807556,570.218140 
z" data-index="20"></path>
<path fill="#30D03B" opacity="1.000000" stroke="none" d="
M471.943573,831.409180 
	C472.848907,832.212891 473.877075,833.314636 474.929108,834.778625 
	C473.990784,833.996277 473.028595,832.851685 471.943573,831.409180 
z" data-index="21"></path>

<path fill="#30D03B" opacity="1.000000" stroke="none" d="
M203.654877,586.072144 
	C203.331116,587.080566 202.744949,588.290344 201.819336,589.637207 
	C202.117401,588.607300 202.754944,587.440369 203.654877,586.072144 
z" data-index="23"></path>
<path fill="#30D03B" opacity="1.000000" stroke="none" d="
M468.582214,826.920715 
	C469.140778,827.363892 469.851379,828.049194 470.493652,829.094971 
	C469.861633,828.691162 469.297974,827.927063 468.582214,826.920715 
z" data-index="24"></path>
<path fill="#30D03B" opacity="1.000000" stroke="none" d="
M211.859497,573.231689 
	C211.695267,573.798340 211.361938,574.585815 210.735138,575.327271 
	C210.857895,574.671631 211.274139,574.062134 211.859497,573.231689 
z" data-index="25"></path>
<path fill="#37E741" opacity="1.000000" stroke="none" d="
M742.610901,510.995850 
	C742.375916,512.062134 741.869507,513.338989 741.054565,514.804077 
	C741.277222,513.730408 741.808350,512.468445 742.610901,510.995850 
z" data-index="26"></path>
<path fill="#30D03B" opacity="1.000000" stroke="none" d="
M486.929016,847.434448 
	C487.677826,847.722046 488.568085,848.282776 489.487061,849.196045 
	C488.700653,848.934875 487.885590,848.321228 486.929016,847.434448 
z" data-index="27"></path>
<path fill="#37E741" opacity="1.000000" stroke="none" d="
M288.574860,463.677124 
	C288.055420,464.323090 287.199554,464.995697 285.996704,465.675293 
	C286.512604,465.022736 287.375519,464.363281 288.574860,463.677124 
z" data-index="28"></path>
<path fill="#37E741" opacity="1.000000" stroke="none" d="
M285.565186,465.688354 
	C285.045166,466.380402 284.179596,467.043121 282.962280,467.723206 
	C283.480255,467.046753 284.349976,466.352936 285.565186,465.688354 
z" data-index="29"></path>
<path fill="#30D03B" opacity="1.000000" stroke="none" d="
M495.053528,854.310425 
	C495.824982,854.556824 496.759308,855.076904 497.802795,855.918457 
	C497.013458,855.687927 496.114899,855.135986 495.053528,854.310425 
z" data-index="30"></path>
<path fill="#30D03B" opacity="1.000000" stroke="none" d="
M210.092377,575.818970 
	C209.887161,576.541809 209.499207,577.508728 208.776886,578.597168 
	C208.931564,577.833496 209.420609,576.948303 210.092377,575.818970 
z" data-index="31"></path>
<path fill="#30D03B" opacity="1.000000" stroke="none" d="
M466.833740,824.229004 
	C467.277557,824.562622 467.833862,825.176575 468.383423,826.130066 
	C467.899872,825.816223 467.423065,825.162781 466.833740,824.229004 
z" data-index="32"></path>
<path fill="#30D03B" opacity="1.000000" stroke="none" d="
M484.827576,845.491089 
	C485.344574,845.689636 486.010101,846.151062 486.767303,846.921265 
	C486.231384,846.737976 485.603760,846.246033 484.827576,845.491089 
z" data-index="33"></path>
<path fill="#30D03B" opacity="1.000000" stroke="none" d="
M205.109619,583.741272 
	C205.016418,584.247375 204.735870,584.969604 204.165604,585.812500 
	C204.224686,585.274597 204.573471,584.615967 205.109619,583.741272 
z" data-index="34"></path>
<path fill="#30D03B" opacity="1.000000" stroke="none" d="
M491.742920,851.636597 
	C492.273163,851.794128 492.987366,852.196411 493.814301,852.903381 
	C493.260284,852.765808 492.593567,852.323547 491.742920,851.636597 
z" data-index="35"></path>
<path fill="#37E741" opacity="1.000000" stroke="none" d="
M765.738831,465.170044 
	C765.737061,465.765381 765.505798,466.621033 765.067261,467.741089 
	C765.076477,467.147125 765.292908,466.288757 765.738831,465.170044 
z" data-index="36"></path>
<path fill="#37E741" opacity="1.000000" stroke="none" d="
M758.697876,479.124847 
	C758.724792,479.744202 758.494568,480.606506 758.056763,481.736572 
	C758.046387,481.125488 758.243591,480.246643 758.697876,479.124847 
z" data-index="37"></path>
<path fill="#37E741" opacity="1.000000" stroke="none" d="
M714.674561,566.095093 
	C714.710876,566.722412 714.482666,567.592041 714.045471,568.731812 
	C714.027649,568.113770 714.218872,567.225586 714.674561,566.095093 
z" data-index="38"></path>
<path fill="#37E741" opacity="1.000000" stroke="none" d="
M760.720764,475.140930 
	C760.727722,475.745178 760.493225,476.605560 760.054199,477.735016 
	C760.059570,477.135101 760.269409,476.266113 760.720764,475.140930 
z" data-index="39"></path>

<path fill="#37E741" opacity="1.000000" stroke="none" d="
M748.681152,499.009766 
	C748.709534,499.393951 748.472412,499.968445 748.055481,500.798157 
	C748.055664,500.435638 748.235657,499.817871 748.681152,499.009766 
z" data-index="41"></path>
<path fill="#37E741" opacity="1.000000" stroke="none" d="
M762.752197,471.097198 
	C762.741516,471.441681 762.497925,471.992767 762.074402,472.787781 
	C762.102844,472.455750 762.311096,471.879791 762.752197,471.097198 
z" data-index="42"></path>
<path fill="#30D03B" opacity="1.000000" stroke="none" d="
M470.598236,829.479980 
	C470.941956,829.636902 471.327179,830.115662 471.804321,830.891602 
	C471.477386,830.726501 471.058563,830.264099 470.598236,829.479980 
z" data-index="43"></path>

<path fill="#37E741" opacity="1.000000" stroke="none" d="
M712.699341,570.130127 
	C712.730042,570.549255 712.473450,571.213135 712.063477,572.199463 
	C712.077393,571.806213 712.244751,571.090637 712.699341,570.130127 
z" data-index="45"></path>
<path fill="#37E741" opacity="1.000000" stroke="none" d="
M291.762390,461.922485 
	C291.540222,462.171021 291.007965,462.464172 290.190918,462.873962 
	C290.421509,462.649414 290.936920,462.308228 291.762390,461.922485 
z" data-index="46"></path>

<path fill="#37E741" opacity="1.000000" stroke="none" d="
M752.694214,491.026001 
	C752.716064,491.406219 752.474609,491.977448 752.051758,492.800903 
	C752.057190,492.441132 752.244080,491.829071 752.694214,491.026001 
z" data-index="48"></path>
<path fill="#30D03B" opacity="1.000000" stroke="none" d="
M283.297729,582.938782 
	C283.310303,582.587830 283.555939,582.023926 283.988678,581.213379 
	C283.960785,581.553101 283.745789,582.139465 283.297729,582.938782 
z" data-index="49"></path>

<path fill="#37E741" opacity="1.000000" stroke="none" d="
M716.761597,562.114197 
	C716.738098,562.446899 716.491821,562.990295 716.076660,563.781616 
	C716.118042,563.461365 716.328430,562.893127 716.761597,562.114197 
z" data-index="51"></path>

<path fill="#37E741" opacity="1.000000" stroke="none" d="
M761.749146,473.090332 
	C761.745605,473.439545 761.503784,473.987457 761.081299,474.776794 
	C761.104065,474.441803 761.307434,473.865417 761.749146,473.090332 
z" data-index="53" style="visibility: hidden;"></path>

<path fill="#30D03B" opacity="1.000000" stroke="none" d="
M297.313782,558.947510 
	C297.319397,558.588196 297.567383,558.023560 298.009491,557.214966 
	C297.987793,557.561462 297.771973,558.151855 297.313782,558.947510 
z" data-index="55"></path>

<path fill="#37E741" opacity="1.000000" stroke="none" d="
M720.774048,554.119995 
	C720.747986,554.444580 720.509705,554.984314 720.095398,555.760986 
	C720.133545,555.443726 720.347717,554.889404 720.774048,554.119995 
z" data-index="57" style="visibility: hidden;"></path>
<path fill="#30D03B" opacity="1.000000" stroke="none" d="
M293.263763,565.889709 
	C293.292206,565.553589 293.543640,565.003052 293.992310,564.217712 
	C293.955261,564.546997 293.720978,565.111206 293.263763,565.889709 
z" data-index="58"></path>

<path fill="#37E741" opacity="1.000000" stroke="none" d="
M750.701660,495.037415 
	C750.716492,495.413696 750.468689,495.982239 750.040649,496.802856 
	C750.053345,496.446472 750.246155,495.838043 750.701660,495.037415 
z" data-index="60"></path>
<path fill="#37E741" opacity="1.000000" stroke="none" d="
M757.566833,481.956665 
	C757.679443,482.414246 757.449768,482.966217 757.035461,483.761230 
	C756.975403,483.353180 757.099976,482.702087 757.566833,481.956665 
z" data-index="61"></path>
<path fill="#30D03B" opacity="1.000000" stroke="none" d="
M489.703613,849.452698 
	C489.926331,849.376404 490.199921,849.638428 490.710693,850.051514 
	C490.550079,850.065369 490.152283,849.928162 489.703613,849.452698 
z" data-index="62"></path>
<path fill="#30D03B" opacity="1.000000" stroke="none" d="
M483.852142,844.334839 
	C484.055756,844.285278 484.314484,844.548279 484.784454,844.984558 
	C484.632874,844.987732 484.270081,844.817566 483.852142,844.334839 
z" data-index="63"></path>
<path fill="#30D03B" opacity="1.000000" stroke="none" d="
M482.846863,843.335327 
	C483.048157,843.282227 483.305450,843.541809 483.777649,843.963135 
	C483.629333,843.965881 483.266083,843.806946 482.846863,843.335327 
z" data-index="64"></path>
<path fill="#30D03B" opacity="1.000000" stroke="none" d="
M490.743164,850.440674 
	C490.974121,850.369141 491.238403,850.634888 491.732605,851.056519 
	C491.567169,851.067627 491.171814,850.922729 490.743164,850.440674 
z" data-index="65"></path>
<path fill="#30D03B" opacity="1.000000" stroke="none" d="
M276.424072,592.250000 
	C276.354675,592.028076 276.618347,591.762268 277.035339,591.265625 
	C277.044830,591.425171 276.900970,591.815674 276.424072,592.250000 
z" data-index="66"></path>
<path fill="#30D03B" opacity="1.000000" stroke="none" d="
M201.635178,589.855835 
	C201.693649,590.089355 201.434860,590.346191 200.991867,590.810608 
	C200.977753,590.638550 201.147827,590.258850 201.635178,589.855835 
z" data-index="67"></path>
<path fill="#30D03B" opacity="1.000000" stroke="none" d="
M282.346924,584.152588 
	C282.286285,583.940063 282.526245,583.671143 282.955566,583.204712 
	C282.979126,583.370300 282.813324,583.733215 282.346924,584.152588 
z" data-index="68"></path>
<path fill="#37E741" opacity="1.000000" stroke="none" d="
M713.640259,568.829468 
	C713.727783,569.116516 713.488281,569.380798 713.057739,569.834656 
	C713.015625,569.618408 713.164429,569.212585 713.640259,568.829468 
z" data-index="69"></path>

<path fill="#37E741" opacity="1.000000" stroke="none" d="
M724.700073,546.910583 
	C724.762634,547.142578 724.528625,547.388367 724.111816,547.811768 
	C724.087280,547.634338 724.245422,547.279358 724.700073,546.910583 
z" data-index="71" style="visibility: hidden;"></path>
<path fill="#37E741" opacity="1.000000" stroke="none" d="
M743.591675,509.758484 
	C743.700623,510.089081 743.461365,510.363739 743.038574,510.838684 
	C742.984558,510.593475 743.114075,510.147980 743.591675,509.758484 
z" data-index="72"></path>
<path fill="#37E741" opacity="1.000000" stroke="none" d="
M289.683350,462.984314 
	C289.745239,463.168182 289.508392,463.413513 289.072510,463.819641 
	C289.043854,463.668884 289.214233,463.357300 289.683350,462.984314 
z" data-index="73"></path>
<path fill="#37E741" opacity="1.000000" stroke="none" d="
M754.611938,487.796356 
	C754.709229,488.102356 754.469482,488.373230 754.038818,488.839539 
	C753.990295,488.610413 754.132568,488.185822 754.611938,487.796356 
z" data-index="74"></path>

<path fill="#37E741" opacity="1.000000" stroke="none" d="
M756.658813,483.837921 
	C756.730347,484.112335 756.485413,484.364990 756.041626,484.791992 
	C756.009399,484.582977 756.175903,484.199554 756.658813,483.837921 
z" data-index="76"></path>

<path fill="#37E741" opacity="1.000000" stroke="none" d="
M764.662598,467.862335 
	C764.741028,468.126312 764.505127,468.384491 764.080933,468.827179 
	C764.044556,468.626617 764.196411,468.241608 764.662598,467.862335 
z" data-index="78"></path>
<path fill="#37E741" opacity="1.000000" stroke="none" d="
M282.610657,467.589600 
	C282.707367,467.770844 282.508545,467.932739 282.128357,468.004211 
	C282.122131,467.883942 282.244843,467.769440 282.610657,467.589600 
z" data-index="79"></path>

<path fill="#010101" opacity="1.000000" stroke="none" d="
M512.950806,177.881348 
	C514.047363,177.937790 515.143921,177.994217 517.099304,178.007111 
	C521.323547,178.198593 524.688965,178.433655 528.054382,178.668701 
	C557.584900,183.506592 581.328491,197.909317 599.715576,222.265549 
	C600.715881,223.526367 601.335205,224.316650 601.954529,225.106934 
	C601.954529,225.106934 601.974548,225.043686 602.030151,225.340683 
	C602.708313,226.463531 603.330872,227.289383 603.953369,228.115219 
	C603.953369,228.115219 603.968323,228.048233 604.024109,228.348053 
	C604.689453,229.493210 605.298950,230.338547 605.908447,231.183899 
	C605.908447,231.183899 605.991211,231.044876 605.987488,231.329559 
	C606.311707,231.791840 606.639709,231.969421 606.967651,232.147003 
	C606.967651,232.147003 606.915955,232.014786 606.810791,232.428864 
	C608.386108,235.977158 610.066650,239.111374 611.747192,242.245575 
	C611.747192,242.245575 611.918884,242.179459 611.794922,242.490753 
	C616.308167,254.432434 619.004761,266.514160 620.082825,278.972290 
	C620.039001,279.430023 619.995178,279.887787 619.964600,281.129089 
	C618.459961,292.264587 616.941895,302.616516 615.423828,312.968445 
	C603.165588,349.751251 578.645447,374.060547 541.484619,385.354370 
	C536.764282,386.788940 531.770386,387.323090 526.189453,388.570496 
	C517.059082,388.866028 508.642426,388.865417 500.095886,388.627747 
	C499.636597,388.355652 499.307220,388.320618 498.660339,388.255066 
	C497.918549,388.234436 497.494232,388.244354 497.069916,388.254272 
	C449.606842,378.635132 419.126099,350.608765 408.957733,303.188965 
	C401.280396,267.385956 411.734772,235.752670 437.796051,209.746582 
	C454.902679,192.676193 475.384491,182.054153 500.233521,178.515778 
	C504.960114,178.091003 508.955475,177.986176 512.950806,177.881348 
z" data-index="81" style="opacity: 1; visibility: hidden; fill: rgb(121, 40, 202);"></path>
<path fill="#37E741" opacity="1.000000" stroke="none" d="
M620.288574,278.627136 
	C619.004761,266.514160 616.308167,254.432434 611.761719,242.404953 
	C614.590454,250.316544 617.620544,258.545227 619.927917,266.971771 
	C620.901428,270.527008 620.351746,274.499298 620.288574,278.627136 
z" data-index="82"></path>
<path fill="#37E741" opacity="1.000000" stroke="none" d="
M615.728394,312.735046 
	C616.941895,302.616516 618.459961,292.264587 620.028442,281.469604 
	C622.220459,291.966858 620.575745,302.420532 615.728394,312.735046 
z" data-index="83"></path>

<path fill="#37E741" opacity="1.000000" stroke="none" d="
M611.777710,241.859161 
	C610.066650,239.111374 608.386108,235.977158 606.744751,232.454926 
	C608.458740,235.202179 610.133484,238.337463 611.777710,241.859161 
z" data-index="85"></path>
<path fill="#3AFB46" opacity="1.000000" stroke="none" d="
M512.594849,177.692871 
	C508.955475,177.986176 504.960114,178.091003 500.508789,178.256027 
	C504.114838,178.045624 508.176880,177.775009 512.594849,177.692871 
z" data-index="86"></path>
<path fill="#3AFB46" opacity="1.000000" stroke="none" d="
M527.731445,178.397751 
	C524.688965,178.433655 521.323547,178.198593 517.503967,177.921967 
	C520.502747,177.962509 523.955627,178.044647 527.731445,178.397751 
z" data-index="87"></path>
<path fill="#37E741" opacity="1.000000" stroke="none" d="
M601.932617,224.808884 
	C601.335205,224.316650 600.715881,223.526367 599.999756,222.448547 
	C600.572266,222.944290 601.241455,223.727570 601.932617,224.808884 
z" data-index="88"></path>
<path fill="#37E741" opacity="1.000000" stroke="none" d="
M605.888062,230.838715 
	C605.298950,230.338547 604.689453,229.493210 603.990051,228.343933 
	C604.556030,228.857849 605.211853,229.675705 605.888062,230.838715 
z" data-index="89"></path>
<path fill="#37E741" opacity="1.000000" stroke="none" d="
M603.911011,227.778305 
	C603.330872,227.289383 602.708313,226.463531 601.997131,225.337738 
	C602.561829,225.838989 603.215210,226.640198 603.911011,227.778305 
z" data-index="90"></path>
<path fill="#37E741" opacity="1.000000" stroke="none" d="
M606.795532,231.936935 
	C606.639709,231.969421 606.311707,231.791840 605.917847,231.288330 
	C606.109131,231.217239 606.366272,231.472061 606.795532,231.936935 
z" data-index="91"></path>
<path fill="#2EC537" opacity="1.000000" stroke="none" d="
M500.095886,388.627747 
	C499.899078,388.872101 499.604095,388.778931 499.159332,388.435486 
	C499.307220,388.320618 499.636597,388.355652 500.095886,388.627747 
z" data-index="92"></path>
</svg>